<svg xmlns="http://www.w3.org/2000/svg" version="1.1" xmlnsXxlink="http://www.w3.org/1999/xlink" xmlnsXsvgjs="http://svgjs.dev/svgjs" width="100%" height="100%" viewBox="0 0 1000 600"><rect width="1000" height="600" x="0" y="0" fill="none"/><g><rect width="333.3333333333333" height="333.3333333333333" rx="13.333333333333334" ry="13.333333333333334" y="262.1968074637652" fill="#2cb1bc" transform="matrix(0.5208884403460653,0,0,0.5208884403460652,0,76.60995529317498)" x="239.974609375"/><path d="M433.7418748823209 458.9415342606217L433.7418748823209 353.8634833040877L453.34102716527275 353.8634833040877L453.34102716527275 458.6524612181003Q453.34102716527275 479.89932984342425 440.5929059900784 491.8669538038108Q427.844784814884 503.8634850684495 406.59791618956007 503.8634850684495L406.59791618956007 503.8634850684495Q384.5416430451761 503.8634850684495 372.25603873801606 492.5896364101144Q359.9415271266038 481.3157877517792 359.9415271266038 460.99395286252377L359.9415271266038 460.99395286252377L379.45395749679926 460.99395286252377Q379.45395749679926 473.68425942921385 386.4206178215653 480.79545627524067Q393.3872781463314 487.9066531212675 406.59791618956007 487.9066531212675L406.59791618956007 487.9066531212675Q418.68116936695515 487.9066531212675 426.16816116825976 480.30403210295424Q433.6262456653123 472.67250378038887 433.7418748823209 458.9415342606217L433.7418748823209 458.9415342606217Z " fill="white" transform="matrix(0.5208884403460653,0,0,0.5208884403460652,0,76.60995529317498)"/><path d="M726.6504159130056 461.24922236361374L726.6504159130056 361.5691506277793L745.2427374087129 361.5691506277793L745.2427374087129 460.9749993327036Q745.2427374087129 481.13039210459857 733.1495017455759 492.4832255842782Q721.0562660824389 503.86348136704885 700.900873310544 503.86348136704885L700.900873310544 503.86348136704885Q679.9776560521005 503.86348136704885 668.3231772384197 493.1687831615535Q656.6412761216479 482.4740849560583 656.6412761216479 463.19620588307566L656.6412761216479 463.19620588307566L675.1513307080822 463.19620588307566Q675.1513307080822 475.23459694003066 681.7601057530164 481.98048350042Q688.3688807979507 488.72637006080936 700.900873310544 488.72637006080936L700.900873310544 488.72637006080936Q712.3633960025876 488.72637006080936 719.4657725031601 481.5143043478728Q726.5407267006417 474.27481633184516 726.6504159130056 461.24922236361374L726.6504159130056 461.24922236361374ZM769.2646749164408 450.0883450055712L769.2646749164408 448.82691906338454Q769.2646749164408 433.49785163550797 775.2701592933728 421.2400821538249Q781.3030659733957 409.00973497523285 792.0526087850731 402.34611532411657Q802.8021515967504 395.7099179760913 816.5955700515302 395.7099179760913L816.5955700515302 395.7099179760913Q837.9026995532478 395.7099179760913 851.0654050369344 410.46311703905656Q864.2006882175299 425.2163161020219 864.2006882175299 449.704432762297L864.2006882175299 449.704432762297L864.2006882175299 450.9384364013926Q864.2006882175299 466.18523691999616 858.3871599622349 478.2784725831332Q852.546209403849 490.37170824627015 841.7143996828987 497.1175948066595Q830.8551676588573 503.86348136704885 816.7875261731673 503.86348136704885L816.7875261731673 503.86348136704885Q795.5626635807229 503.86348136704885 782.3999580970362 489.1102823040835Q769.2646749164408 474.3845055442092 769.2646749164408 450.0883450055712L769.2646749164408 450.0883450055712ZM787.1714388348727 450.9384364013926L787.1714388348727 450.9384364013926Q787.1714388348727 468.2967542580042 795.2335959436307 478.79949634186244Q803.2957530523887 489.3022384257206 816.7875261731673 489.3022384257206L816.7875261731673 489.3022384257206Q830.361566203219 489.3022384257206 838.3688787057949 478.66238482640733Q846.376191208371 467.9951089240031 846.376191208371 448.82691906338454L846.376191208371 448.82691906338454Q846.376191208371 431.66055732841005 838.23176719034 421.0207037290968Q830.0873431723089 410.3534278266925 816.5955700515302 410.3534278266925L816.5955700515302 410.3534278266925Q803.3780199616617 410.3534278266925 795.2884405498127 420.8561699105507Q787.1714388348727 431.38633429749996 787.1714388348727 450.9384364013926ZM974.8771034928607 449.4027874282959L974.8771034928607 450.9384364013926Q974.8771034928607 474.85068469675645 963.9081822564552 489.3570830319027Q952.9118387169588 503.86348136704885 934.4017841305247 503.86348136704885L934.4017841305247 503.86348136704885Q914.6303036019037 503.86348136704885 903.8259161840444 489.9055290937229L903.8259161840444 489.9055290937229L902.975824788223 501.94392015067785L886.5772875397969 501.94392015067785L886.5772875397969 353.86348345920453L904.4017845489557 353.86348345920453L904.4017845489557 409.09200188450586Q915.2061719668152 395.7099179760913 934.2098280088875 395.7099179760913Q953.186061747869 395.7099179760913 964.0452937719103 410.0792047957824Q974.8771034928607 424.4210693123825 974.8771034928607 449.4027874282959L974.8771034928607 449.4027874282959ZM957.0526064837018 448.9091859726576L957.0526064837018 448.9091859726576Q957.0526064837018 430.7007767202246 950.0050745893113 420.7739030012777Q942.984964998012 410.84702928233077 929.7674149081433 410.84702928233077L929.7674149081433 410.84702928233077Q912.1348740206215 410.84702928233077 904.4017845489557 427.2181442276659L904.4017845489557 427.2181442276659L904.4017845489557 472.3552551154742Q912.6010531731688 488.72637006080936 929.9593710297804 488.72637006080936L929.9593710297804 488.72637006080936Q942.7930088763748 488.72637006080936 949.9228076800383 478.79949634186244Q957.0526064837018 468.8726226229155 957.0526064837018 448.9091859726576ZM1142.1531523480435 361.5691506277793L1142.1531523480435 376.8159511463829L1097.0434637633261 376.8159511463829L1097.0434637633261 501.94392015067785L1078.615676086165 501.94392015067785L1078.615676086165 376.8159511463829L1033.5882544107208 376.8159511463829L1033.5882544107208 361.5691506277793L1142.1531523480435 361.5691506277793ZM1203.3597328471858 397.0536108275509L1203.3597328471858 413.6441041976141Q1199.3286542928067 412.9585466203388 1194.6120181611525 412.9585466203388L1194.6120181611525 412.9585466203388Q1177.0617441829038 412.9585466203388 1170.7820367750617 427.9037018049412L1170.7820367750617 427.9037018049412L1170.7820367750617 501.94392015067785L1152.9575397659028 501.94392015067785L1152.9575397659028 397.6294791924622L1170.3158576225146 397.6294791924622L1170.5900806534246 409.6952925525082Q1179.365217642549 395.7099179760913 1195.462109556974 395.7099179760913L1195.462109556974 395.7099179760913Q1200.6723471442665 395.7099179760913 1203.3597328471858 397.0536108275509L1203.3597328471858 397.0536108275509ZM1299.0087260286414 501.94392015067785L1280.30671532057 501.94392015067785Q1278.7710663474732 498.84519990139336 1277.8112857392878 490.94757661118143L1277.8112857392878 490.94757661118143Q1265.3615601359675 503.86348136704885 1248.1129314917202 503.86348136704885L1248.1129314917202 503.86348136704885Q1232.6741748514794 503.86348136704885 1222.8021457387144 495.14318898410653Q1212.9026943228587 486.4228966011642 1212.9026943228587 473.0133903896585L1212.9026943228587 473.0133903896585Q1212.9026943228587 456.7245423535965 1225.2975753199967 447.702604636653Q1237.6924563171349 438.7080892228006 1260.1513225486751 438.7080892228006L1260.1513225486751 438.7080892228006L1277.5096404052865 438.7080892228006L1277.5096404052865 430.5088205985875Q1277.5096404052865 421.1578152445519 1271.9154905747198 415.61851002016715Q1266.321340744153 410.0792047957824 1255.4346864170207 410.0792047957824L1255.4346864170207 410.0792047957824Q1245.891724941348 410.0792047957824 1239.4200614118686 414.8781078367098Q1232.9758201854806 419.7044331807282 1232.9758201854806 426.56000895348154L1232.9758201854806 426.56000895348154L1215.0416339639578 426.56000895348154Q1215.0416339639578 418.7446525725427 1220.5809391883424 411.4777422534241Q1226.120244412727 404.18340963121443 1235.6083612822179 399.93295265210736Q1245.1239004547997 395.7099179760913 1256.5041562375702 395.7099179760913L1256.5041562375702 395.7099179760913Q1274.520609368366 395.7099179760913 1284.7491284213143 404.7044333899437Q1294.9502251711713 413.7263711068872 1295.3341374144454 429.54903999040204L1295.3341374144454 429.54903999040204L1295.3341374144454 477.56549270276685Q1295.3341374144454 491.90735721936693 1299.0087260286414 500.4082711775811L1299.0087260286414 500.4082711775811L1299.0087260286414 501.94392015067785ZM1250.7180502853662 488.34245781753515L1250.7180502853662 488.34245781753515Q1259.0818527281253 488.34245781753515 1266.622986078154 484.009733929155Q1274.1366971250918 479.67701004077486 1277.5096404052865 472.73916735874843L1277.5096404052865 472.73916735874843L1277.5096404052865 451.3223486446668L1263.5242658288696 451.3223486446668Q1230.7546136351084 451.3223486446668 1230.7546136351084 470.5179608083763L1230.7546136351084 470.5179608083763Q1230.7546136351084 478.9091855542265 1236.3487634656751 483.62582168588085Q1241.9429132962418 488.34245781753515 1250.7180502853662 488.34245781753515ZM1365.151321084166 489.3022384257206L1365.151321084166 489.3022384257206Q1374.6942825598387 489.3022384257206 1381.8240813635025 483.5435547766078Q1388.953880167166 477.7574488244039 1389.7217046537141 469.0645787445526L1389.7217046537141 469.0645787445526L1406.5864210546874 469.0645787445526Q1406.1202419021402 478.031671855314 1400.4164028592095 486.1212512671631Q1394.7399861193696 494.23825298210306 1385.251869249879 499.0645783261215Q1375.7363300772972 503.86348136704885 1365.151321084166 503.86348136704885L1365.151321084166 503.86348136704885Q1343.8441915824485 503.86348136704885 1331.2573544636732 489.6587283659038Q1318.6705173448981 475.42655306166773 1318.6705173448981 450.74648027975553L1318.6705173448981 450.74648027975553L1318.6705173448981 447.75744924283504Q1318.6705173448981 432.53807102732253 1324.2646671754646 420.6642137889136Q1329.8588170060316 408.81777885359577 1340.3067144837078 402.2638484148435Q1350.782034264475 395.7099179760913 1365.041631871802 395.7099179760913L1365.041631871802 395.7099179760913Q1382.5919058500506 395.7099179760913 1394.2189623606405 406.2126600599495Q1405.8185965681391 416.7154021438077 1406.5864210546874 433.49785163550797L1406.5864210546874 433.49785163550797L1389.7217046537141 433.49785163550797Q1388.953880167166 423.379021794924 1382.0708820913214 416.85251365926274Q1375.160461712386 410.3534278266925 1365.041631871802 410.3534278266925L1365.041631871802 410.3534278266925Q1351.4401695386591 410.3534278266925 1343.9813030979035 420.14319003018437Q1336.5224366571479 429.93295223367625 1336.5224366571479 448.4430068201104L1336.5224366571479 448.4430068201104L1336.5224366571479 451.81595010030503Q1336.5224366571479 469.832403231101 1343.9264584917214 479.5673208284108Q1351.357902629386 489.3022384257206 1365.151321084166 489.3022384257206ZM1492.1165843955587 501.94392015067785L1455.7546104968749 453.65324440740295L1444.5937331388322 465.30772322108373L1444.5937331388322 501.94392015067785L1426.7418138265825 501.94392015067785L1426.7418138265825 353.86348345920453L1444.5937331388322 353.86348345920453L1444.5937331388322 443.4247253544549L1454.136694614505 431.9622026624112L1486.604701474265 397.6294791924622L1508.295743219257 397.6294791924622L1467.7107346445569 441.2035188040828L1513.0398016540025 501.94392015067785L1492.1165843955587 501.94392015067785ZM1568.0763639576667 503.86348136704885L1568.0763639576667 503.86348136704885Q1546.8789236683128 503.86348136704885 1533.5516843660803 489.9329513968139Q1520.2518673669388 476.002421426579 1520.2518673669388 452.6934637992175L1520.2518673669388 452.6934637992175L1520.2518673669388 449.4027874282959Q1520.2518673669388 433.8817638787822 1526.2025071376888 421.67883900328115Q1532.1257246053478 409.5033364308711 1542.7655782046609 402.5929160519357Q1553.4328541070652 395.7099179760913 1565.8551574072944 395.7099179760913L1565.8551574072944 395.7099179760913Q1586.2025063008264 395.7099179760913 1597.473072871233 409.09200188450586Q1608.7710617447308 422.50150809601155 1608.7710617447308 447.48322621192494L1608.7710617447308 447.48322621192494L1608.7710617447308 454.8872480464986L1538.1037866791887 454.8872480464986Q1538.487698922463 470.3260046867392 1547.0983020930412 479.8141215562299Q1555.7363275667103 489.3022384257206 1569.0361445658518 489.3022384257206L1569.0361445658518 489.3022384257206Q1578.4968391322518 489.3022384257206 1585.050769571004 485.4631159929787Q1591.6047000097562 481.5965712571458 1596.5132922630478 475.23459694003066L1596.5132922630478 475.23459694003066L1607.39994659018 483.73551089824485Q1594.2920857126755 503.86348136704885 1568.0763639576667 503.86348136704885ZM1565.8551574072944 410.3534278266925L1565.8551574072944 410.3534278266925Q1555.0507699894351 410.3534278266925 1547.7290150641345 418.22362881381343Q1540.4072601388339 426.0664074978433 1538.6796550441 440.2437381958973L1538.6796550441 440.2437381958973L1590.9191424324808 440.2437381958973L1590.9191424324808 438.9000453444377Q1590.1513179459325 425.2985830112949 1583.5973875071802 417.8397165705392Q1577.0434570684279 410.3534278266925 1565.8551574072944 410.3534278266925ZM1679.8222490535468 397.0536108275509L1679.8222490535468 413.6441041976141Q1675.763748196077 412.9585466203388 1671.0471120644224 412.9585466203388L1671.0471120644224 412.9585466203388Q1653.4968380861737 412.9585466203388 1647.2171306783316 427.9037018049412L1647.2171306783316 427.9037018049412L1647.2171306783316 501.94392015067785L1629.392633669173 501.94392015067785L1629.392633669173 397.6294791924622L1646.7509515257843 397.6294791924622L1647.0251745566948 409.6952925525082Q1655.800311545819 395.7099179760913 1671.8972034602439 395.7099179760913L1671.8972034602439 395.7099179760913Q1677.1074410475367 395.7099179760913 1679.8222490535468 397.0536108275509L1679.8222490535468 397.0536108275509Z " fill="#2cb1bc" transform="matrix(0.5208884403460653,0,0,0.5208884403460652,0,76.60995529317498)"/></g></svg>